PathFileType	4	(X/Y/Z)	C:/Users/opensim2020/Desktop/walking_exp_matlab/subject03_walking12_straight_02.trc	
DataRate	CameraRate	NumFrames	NumMarkers	Units	OrigDataRate	OrigDataStartFrame	OrigNumFrames	
100.00	100.00	8	48	mm	100.00	1147	187	
Frame#	Time	LFHD			RFHD			LBHD			RBHD			C7			T10			CLAV			STRN			RBAK			LSHO			LUPA			LELB			LFRM			LWRA			LWRB			LFIN			RSHO			RUPA			RELB			RFRM			RWRA			RWRB			RFIN			LASI			RASI			LPSI			RPSI			LTHI			LKNE			LTIB			LANK			LHEE			LTOE			RTHI			RKNE			RTIB			RANK			RHEE			RTOE			*39			*40			*41			*42			*43			*44			*45			*46			*47			
		X1	Y1	Z1	X2	Y2	Z2	X3	Y3	Z3	X4	Y4	Z4	X5	Y5	Z5	X6	Y6	Z6	X7	Y7	Z7	X8	Y8	Z8	X9	Y9	Z9	X10	Y10	Z10	X11	Y11	Z11	X12	Y12	Z12	X13	Y13	Z13	X14	Y14	Z14	X15	Y15	Z15	X16	Y16	Z16	X17	Y17	Z17	X18	Y18	Z18	X19	Y19	Z19	X20	Y20	Z20	X21	Y21	Z21	X22	Y22	Z22	X23	Y23	Z23	X24	Y24	Z24	X25	Y25	Z25	X26	Y26	Z26	X27	Y27	Z27	X28	Y28	Z28	X29	Y29	Z29	X30	Y30	Z30	X31	Y31	Z31	X32	Y32	Z32	X33	Y33	Z33	X34	Y34	Z34	X35	Y35	Z35	X36	Y36	Z36	X37	Y37	Z37	X38	Y38	Z38	X39	Y39	Z39	X40	Y40	Z40	X41	Y41	Z41	X42	Y42	Z42	X43	Y43	Z43	X44	Y44	Z44	X45	Y45	Z45	X46	Y46	Z46	X47	Y47	Z47	X48	Y48	Z48	

47	0.460	1466.73218	757.25928	1632.38086	1335.13708	774.86072	1633.79199	1480.17273	884.74127	1589.12317	1350.04663	897.35785	1590.12830	1420.78955	920.27301	1425.69702	1420.72290	951.50476	1113.01538	1416.77844	797.39282	1351.04175	1423.78430	751.53387	1186.80957	1328.22766	974.14667	1249.13574	1572.39478	844.26245	1391.47668	1649.79053	846.05786	1198.73157	1663.63269	823.63904	1079.94983	1656.48413	742.34161	983.09821	1616.87976	662.83752	900.37476	1662.92883	687.29926	883.04303	1650.19702	624.34351	829.95789	1260.27441	853.49115	1375.60144	1184.65625	839.95850	1155.88428	1170.30676	812.96973	1046.46582	1166.10205	780.45587	913.57599	1199.52002	737.76440	822.23816	1156.72009	770.27362	813.75031	1165.00098	739.77740	745.32391	1535.99255	782.78046	952.90631	1299.23889	785.96393	948.94727	1488.47583	945.50677	969.94092	1339.59729	944.09595	979.70953	1593.52625	774.05847	654.00482	1572.56702	716.19952	483.36929	1566.55896	830.12793	320.52658	1522.76697	937.07544	142.97820	1481.16895	988.35834	127.63711	1506.43323	821.83911	51.34228	1267.49268	838.61932	649.70068	1313.08484	826.90057	474.00671	1315.45886	881.55402	287.39325	1371.08643	920.15332	76.54697	1423.23901	963.59747	46.64739	1381.06445	779.46265	37.25158	1417.41846	844.65247	1688.58838																								 
48	0.470	1467.12622	743.86121	1632.19409	1335.57312	761.53131	1633.78748	1481.57947	872.18890	1589.30408	1350.53687	884.01282	1590.08704	1421.02161	907.27277	1425.81848	1420.15845	939.03052	1113.23328	1417.13318	784.54102	1350.95068	1423.85303	739.01941	1186.59741	1327.29675	960.98395	1249.43677	1572.68042	831.51538	1390.92224	1649.35974	835.38904	1197.75391	1662.81030	814.91327	1078.29163	1656.10120	736.34912	978.41663	1617.36584	659.70428	892.84039	1663.21960	685.17255	876.54736	1650.67688	624.47205	820.51147	1260.56653	840.27472	1376.13623	1184.29126	824.51770	1156.87622	1169.94214	795.76904	1048.01855	1166.08008	760.08154	915.90784	1199.89355	715.18457	825.83838	1157.27185	747.38641	816.29559	1165.47229	715.02118	748.93408	1536.02637	770.68060	953.00098	1299.44897	773.84186	948.66248	1488.51526	933.03583	970.24396	1339.57324	931.76410	980.00128	1593.11157	757.10168	655.73285	1570.48267	696.51581	486.10486	1565.08765	802.08746	316.84027	1521.84631	898.42255	133.07796	1480.47083	949.35748	114.76125	1505.44690	777.18500	49.64249	1268.00073	830.66040	649.75519	1312.94983	823.13611	473.64313	1315.58801	879.98230	287.95251	1371.46387	919.90936	77.20625	1423.78796	963.20880	47.52954	1381.04504	779.26178	37.16970	1427.15784	832.37744	1694.06030																								 
49	0.480	1467.55359	730.43585	1631.69629	1336.06885	748.04395	1633.20544	1481.58496	858.37012	1588.78552	1350.95569	870.73700	1589.84143	1421.14465	894.07068	1425.47119	1419.82764	926.49725	1113.08386	1417.47241	771.61993	1350.57690	1423.93994	726.28235	1186.08936	1326.48560	947.82037	1249.23108	1573.02344	818.71863	1389.99548	1648.93176	824.56110	1196.39929	1662.08069	805.86987	1076.30847	1655.92114	730.52283	973.40845	1617.86816	656.80286	884.80585	1663.71082	683.58887	869.71021	1651.30762	625.07965	810.87811	1260.83911	826.93011	1376.30676	1183.85498	809.23248	1157.50146	1169.49451	778.67554	1049.20837	1166.15430	739.83032	917.91992	1200.34473	692.74213	829.25580	1157.78748	724.74933	818.66370	1166.06531	690.24780	752.44067	1535.53552	758.87152	952.82086	1299.66455	761.83588	948.01801	1488.77026	920.56763	970.01025	1339.71472	919.62189	979.92468	1592.87878	740.27417	656.99951	1568.62427	677.63702	488.31461	1564.09473	774.52875	313.27014	1521.18530	859.05981	123.46859	1479.87878	908.62933	101.69108	1504.69153	732.76825	48.04886	1268.58813	822.88306	649.68738	1312.75964	819.11835	473.15182	1315.73572	878.10156	288.47119	1371.83533	919.62720	77.89739	1424.33704	962.79816	48.55411	1380.90833	779.25793	37.13505	1418.40552	817.74371	1688.19092																								 
50	0.490	1468.05530	717.03650	1630.93250	1336.53052	734.80817	1632.68201	1482.43994	845.44025	1588.13049	1351.40771	857.45050	1589.38879	1421.38696	880.99738	1425.00208	1419.67273	914.01923	1112.58325	1417.83044	758.66693	1349.84558	1423.98560	714.27466	1185.00208	1325.81726	934.65399	1248.71338	1573.36475	805.89691	1388.73694	1648.46216	813.58972	1194.70618	1661.42261	796.45795	1074.01208	1655.91467	725.01001	968.28687	1618.54248	654.30878	876.51886	1664.16370	682.04883	862.53912	1652.03748	626.12939	801.10114	1261.04822	813.59735	1376.12512	1183.42676	793.88580	1157.82043	1169.02954	761.70453	1050.04260	1166.22546	719.62524	919.68561	1200.91064	669.73865	832.49902	1158.36096	702.22064	820.80127	1166.91565	665.53882	755.76666	1535.68494	746.10632	952.36371	1299.84924	749.79926	947.29523	1489.12915	908.15686	969.17749	1340.03687	907.57257	979.44830	1592.68970	723.66107	657.72290	1566.98242	659.55487	489.95651	1562.88208	746.52924	309.18210	1520.55933	818.81360	113.95900	1479.01550	866.58716	88.64261	1504.14478	688.05780	47.33057	1269.31274	814.77557	649.51910	1312.67114	814.78693	472.74884	1315.86951	876.04779	288.94955	1372.27014	919.41498	78.47912	1425.01062	962.48743	49.58630	1380.85303	779.14099	37.04214	1418.81238	804.30310	1687.49414																								 
51	0.500	1468.56482	703.71204	1629.90173	1337.05737	721.54877	1631.84558	1483.05872	832.20532	1587.16248	1351.98633	844.21289	1588.52502	1421.55627	867.73010	1424.20459	1419.76611	901.54474	1111.79980	1418.17822	745.61755	1348.79395	1424.25183	701.44067	1183.73877	1325.28137	921.55951	1248.01697	1573.78357	793.04352	1387.23474	1648.02637	802.46313	1192.74133	1660.81165	786.74298	1071.49683	1655.82971	719.25177	962.78497	1619.22119	652.21411	867.92316	1664.68921	680.80511	855.18915	1652.85559	627.67090	791.26758	1261.28064	800.10260	1375.53467	1183.03857	778.51300	1157.70715	1168.63220	744.83844	1050.50073	1166.34802	699.61908	921.26202	1201.71167	648.30139	835.55536	1159.39868	679.41083	822.75507	1167.93677	640.89288	759.09625	1535.92932	733.41351	951.30084	1300.03638	737.91168	946.36816	1489.73401	895.69830	967.80353	1340.64880	895.71741	978.58044	1592.63843	707.31427	658.01538	1565.45325	642.25336	491.05911	1562.16711	719.12384	305.36160	1520.18213	778.31146	105.57857	1479.58667	825.31372	78.00792	1503.63940	643.50177	46.97252	1269.69604	806.89655	649.13849	1312.61206	810.09583	472.37213	1316.09106	873.66272	289.34933	1372.96729	919.12976	79.40036	1425.85779	962.12256	50.63588	1380.77332	779.28546	37.03603	1429.31799	792.86835	1692.61670																								 
52	0.510	1469.09070	690.39819	1628.55444	1337.64819	708.28339	1630.75488	1483.01904	818.43207	1585.57288	1352.37000	830.85254	1587.37634	1421.54736	854.31757	1423.12598	1420.10889	889.08838	1110.76782	1418.53015	732.56805	1347.38928	1424.46228	688.61145	1182.19580	1324.91626	908.52551	1247.12048	1574.16150	780.18884	1385.49121	1647.50891	791.16113	1190.52100	1660.23450	776.67737	1068.74280	1655.77673	713.46729	957.04572	1619.89087	650.49347	859.12524	1665.30432	679.79431	847.82690	1653.81311	629.68463	781.62006	1261.53174	786.62427	1374.51965	1182.64050	763.15381	1157.27112	1168.18848	728.05579	1050.57422	1166.55847	679.68848	922.54718	1202.56091	626.50201	838.40594	1160.22668	656.93640	824.60583	1169.19861	616.42334	762.26660	1536.15344	719.24091	950.43176	1300.04883	725.95398	945.18610	1490.59119	883.14868	965.93079	1341.51355	883.92426	977.29181	1592.64636	691.09564	657.90741	1564.43652	626.06982	491.64944	1561.49805	691.97089	301.67377	1520.62109	737.76947	98.51755	1478.99280	782.31915	67.27908	1503.16431	599.22339	47.26640	1269.84778	799.15161	648.68109	1312.97156	805.05255	471.72803	1316.60388	870.90063	289.68570	1373.49402	918.69269	80.07097	1426.58789	961.79730	51.64716	1380.95386	778.82330	36.88003	1420.22888	777.51831	1685.34351																								 
53	0.520	1469.65674	677.07703	1626.99768	1338.25256	695.05145	1629.41931	1484.07288	805.48291	1584.11011	1352.91699	817.60944	1585.92542	1421.69141	840.93488	1421.87219	1420.68640	876.62598	1109.46326	1418.89050	719.47302	1345.74402	1424.63904	676.11279	1180.24072	1324.78723	895.56256	1246.06885	1574.54504	767.22144	1383.42712	1647.02527	779.69281	1188.09094	1659.61963	766.33368	1065.84033	1655.66980	707.65424	951.21527	1620.59302	649.13818	850.38733	1665.97070	679.06323	840.64337	1654.85535	632.01550	772.10010	1261.80188	773.04620	1373.22241	1182.33521	747.80084	1156.47278	1167.76563	711.43457	1050.37231	1166.76526	660.05322	923.60724	1203.52783	604.86328	841.18976	1161.22449	634.72052	826.27826	1170.56738	592.13507	765.32196	1536.14832	706.49005	948.69751	1299.76123	713.99951	943.83868	1491.59937	870.44336	963.72137	1342.57849	872.16638	975.56268	1592.50159	675.57129	657.18854	1562.85974	609.78516	491.51019	1561.17969	665.33032	298.13535	1519.71912	696.34686	91.00735	1478.90735	739.45410	58.55409	1502.78284	555.15222	48.26154	1270.27893	791.09100	647.96625	1313.20703	799.34406	471.00867	1317.01099	867.80322	289.88983	1374.06799	918.27985	80.77781	1427.27075	961.50751	52.68691	1381.03601	778.76776	36.80633	1420.45703	764.19232	1683.65869																								 
54	0.530	1470.26172	663.75940	1625.28320	1338.81763	681.85028	1627.86218	1484.11353	791.60126	1582.00354	1353.49634	804.31915	1584.18396	1421.89148	827.69012	1420.41174	1421.41809	864.05878	1107.87903	1419.26599	706.30463	1343.83813	1424.84387	663.69653	1178.30103	1324.72083	882.68640	1244.81812	1574.94910	754.19788	1381.22388	1646.52429	768.05481	1185.52722	1658.98132	755.88623	1062.80017	1655.64478	701.98755	945.52863	1621.43518	648.16211	842.03259	1666.79456	678.58661	833.80084	1656.06213	634.81079	763.03320	1262.09973	759.38055	1371.49121	1182.00745	732.45111	1155.37634	1167.36365	694.94122	1049.86426	1167.12354	640.53973	924.46259	1204.56409	583.32239	843.83014	1162.28857	612.72333	827.82465	1172.07837	568.39886	768.49176	1536.40198	692.97662	946.72473	1299.76709	703.08759	941.97766	1492.79749	857.56689	961.19769	1343.84351	860.35645	973.54541	1592.14990	660.31610	656.24658	1562.15015	595.14551	490.91998	1560.71643	639.08722	294.78223	1520.52258	656.45142	86.65714	1478.93713	696.76703	51.30056	1502.52185	511.83456	49.79821	1270.58386	782.89166	647.22290	1313.15894	792.91907	470.17569	1317.35889	864.48688	289.97757	1374.61133	917.79791	81.52496	1427.93787	961.21625	53.87682	1380.85461	778.61639	36.78843	1421.61389	750.97089	1682.00696																								 
